<?xml version="1.0" encoding="UTF-8"?>
<svg width="32" height="32" viewBox="0 0 32 32" fill="none" xmlns="http://www.w3.org/2000/svg">
  <!-- Fundo circular azul -->
  <circle cx="16" cy="16" r="16" fill="#1e3a8a"/>
  
  <!-- Prédio principal -->
  <rect x="10" y="8" width="12" height="16" fill="#3b82f6" rx="1"/>
  
  <!-- Janelas do prédio (mais simples) -->
  <rect x="12" y="10" width="2" height="1.5" fill="#dbeafe"/>
  <rect x="15" y="10" width="2" height="1.5" fill="#dbeafe"/>
  <rect x="18" y="10" width="2" height="1.5" fill="#dbeafe"/>
  
  <rect x="12" y="13" width="2" height="1.5" fill="#dbeafe"/>
  <rect x="15" y="13" width="2" height="1.5" fill="#dbeafe"/>
  <rect x="18" y="13" width="2" height="1.5" fill="#dbeafe"/>
  
  <rect x="12" y="16" width="2" height="1.5" fill="#dbeafe"/>
  <rect x="15" y="16" width="2" height="1.5" fill="#dbeafe"/>
  <rect x="18" y="16" width="2" height="1.5" fill="#dbeafe"/>
  
  <rect x="12" y="19" width="2" height="1.5" fill="#dbeafe"/>
  <rect x="15" y="19" width="2" height="1.5" fill="#dbeafe"/>
  <rect x="18" y="19" width="2" height="1.5" fill="#dbeafe"/>
  
  <!-- Entrada/porta -->
  <rect x="14.5" y="21" width="3" height="3" fill="#fbbf24"/>
  
  <!-- Telhado simples -->
  <polygon points="10,8 16,5 22,8" fill="#1e40af"/>
  
  <!-- Letra "E" pequena (Edifício) -->
  <text x="16" y="27" font-family="Arial, sans-serif" font-size="4" font-weight="bold" text-anchor="middle" fill="#fbbf24">E</text>
</svg>
